<?xml version="1.0" encoding="UTF-8"?>
<svg width="48px" height="48px" viewBox="0 0 48 48" version="1.1" xmlns="http://www.w3.org/2000/svg" xmlns:xlink="http://www.w3.org/1999/xlink">
    <!-- Generator: sketchtool 52.5 (67469) - http://www.bohemiancoding.com/sketch -->
    <title>1421523B-B916-4AC4-A57E-67FCE11DDDA6</title>
    <desc>Created with sketchtool.</desc>
    <defs>
        <filter x="-78.1%" y="-78.1%" width="256.2%" height="256.2%" filterUnits="objectBoundingBox" id="filter-1">
            <feOffset dx="0" dy="2" in="SourceAlpha" result="shadowOffsetOuter1"></feOffset>
            <feGaussianBlur stdDeviation="3" in="shadowOffsetOuter1" result="shadowBlurOuter1"></feGaussianBlur>
            <feColorMatrix values="0 0 0 0 0   0 0 0 0 0   0 0 0 0 0  0 0 0 0.2 0" type="matrix" in="shadowBlurOuter1" result="shadowMatrixOuter1"></feColorMatrix>
            <feMerge>
                <feMergeNode in="shadowMatrixOuter1"></feMergeNode>
                <feMergeNode in="SourceGraphic"></feMergeNode>
            </feMerge>
        </filter>
        <filter x="-37.5%" y="-37.5%" width="175.0%" height="175.0%" filterUnits="objectBoundingBox" id="filter-2">
            <feOffset dx="0" dy="2" in="SourceAlpha" result="shadowOffsetOuter1"></feOffset>
            <feGaussianBlur stdDeviation="2" in="shadowOffsetOuter1" result="shadowBlurOuter1"></feGaussianBlur>
            <feColorMatrix values="0 0 0 0 0   0 0 0 0 0   0 0 0 0 0  0 0 0 0.5 0" type="matrix" in="shadowBlurOuter1" result="shadowMatrixOuter1"></feColorMatrix>
            <feMerge>
                <feMergeNode in="shadowMatrixOuter1"></feMergeNode>
                <feMergeNode in="SourceGraphic"></feMergeNode>
            </feMerge>
        </filter>
    </defs>
    <g id="Page-1" stroke="none" stroke-width="1" fill="none" fill-rule="evenodd">
        <g id="Landing-desktop-1440" transform="translate(-1129.000000, -7984.000000)">
            <rect fill="#1C2127" x="0" y="0" width="1440" height="8422"></rect>
            <g id="Footer/1440&gt;-5_Footer/1440&gt;" transform="translate(0.000000, 7615.000000)">
                <polygon id="Rectangle" fill="#1C2127" points="0 100.527118 1440 0 1440 561 0 561"></polygon>
                <g id="icon/Facebook-2_icon/social/Facebook" filter="url(#filter-1)" transform="translate(1137.000000, 373.000000)" fill="#FFFFFF">
                    <g id="Facebook" filter="url(#filter-2)">
                        <path d="M0,16 C0,7.16344357 7.16344357,0 16,0 C24.8365564,0 32,7.16344357 32,16 C32,24.8365564 24.8365564,32 16,32 C7.16344357,32 0,24.8365564 0,16 Z M17.6677034,25.4076511 L17.6677034,16.7028064 L20.0706212,16.7028064 L20.3890597,13.7030687 L17.6677034,13.7030687 L17.6717859,12.2016711 C17.6717859,11.4192933 17.7461223,11.0000774 18.8698427,11.0000774 L20.3720491,11.0000774 L20.3720491,8 L17.9687911,8 C15.0820917,8 14.0660483,9.45519552 14.0660483,11.9023768 L14.0660483,13.7034084 L12.2666667,13.7034084 L12.2666667,16.7031461 L14.0660483,16.7031461 L14.0660483,25.4076511 L17.6677034,25.4076511 Z" id="Combined-Shape"></path>
                    </g>
                </g>
            </g>
        </g>
    </g>
</svg>