<?xml version="1.0" encoding="UTF-8"?>
<svg width="32px" height="21px" viewBox="0 0 32 21" version="1.1" xmlns="http://www.w3.org/2000/svg" xmlns:xlink="http://www.w3.org/1999/xlink">
    <!-- Generator: sketchtool 52.5 (67469) - http://www.bohemiancoding.com/sketch -->
    <title>8CD4E4A1-D249-40EB-BD94-BB210327FA30</title>
    <desc>Created with sketchtool.</desc>
    <g id="Page-1" stroke="none" stroke-width="1" fill="none" fill-rule="evenodd">
        <g id="Landing-desktop-1440" transform="translate(-1053.000000, -7841.000000)">
            <rect fill="#1C2127" x="0" y="0" width="1440" height="8422"></rect>
            <g id="Footer/1440&gt;-5_Footer/1440&gt;" transform="translate(0.000000, 7615.000000)">
                <polygon id="Rectangle" fill="#1C2127" points="0 100.527118 1440 0 1440 561 0 561"></polygon>
                <g id="icon_Message-icon/icon_Message" transform="translate(1053.000000, 221.000000)">
                    <g id="icon_Message">
                        <rect id="Rectangle" x="0" y="0" width="32" height="32"></rect>
                        <g id="Group-5" transform="translate(2.000000, 7.000000)" stroke="#FFFFFF" stroke-width="2.42">
                            <path d="M3.63,-9.05941988e-14 L24.37,-9.1038288e-14 C26.3747936,-9.14065626e-14 28,1.62520636 28,3.63 L28,13.17 C28,15.1747936 26.3747936,16.8 24.37,16.8 L3.63,16.8 C1.62520636,16.8 6.91734426e-16,15.1747936 -4.4408921e-16,13.17 L-4.4408921e-16,3.63 C-6.89605621e-16,1.62520636 1.62520636,-9.11141026e-14 3.63,-9.14823772e-14 Z" id="Rectangle-7"></path>
                            <polyline id="Path-2" stroke-linecap="round" stroke-linejoin="round" points="26.6 1.4 13.2890594 9.8 7.960079e-13 1.47391888"></polyline>
                            <path d="M26.6,15.4 L20.1137298,11.2264768 L26.6,15.4 Z M6.61392284,11.2 L7.26529947e-13,15.3373044 L6.61392284,11.2 Z" id="Path-2-Copy-2" fill="#D8D8D8" stroke-linecap="round" stroke-linejoin="round"></path>
                        </g>
                    </g>
                </g>
            </g>
        </g>
    </g>
</svg>