<?xml version="1.0" encoding="UTF-8"?>
<svg width="48px" height="48px" viewBox="0 0 48 48" version="1.1" xmlns="http://www.w3.org/2000/svg" xmlns:xlink="http://www.w3.org/1999/xlink">
    <!-- Generator: sketchtool 52.5 (67469) - http://www.bohemiancoding.com/sketch -->
    <title>CBA04374-2397-4804-9777-7A079E7C0A9A</title>
    <desc>Created with sketchtool.</desc>
    <defs>
        <filter x="-78.1%" y="-78.1%" width="256.2%" height="256.2%" filterUnits="objectBoundingBox" id="filter-1">
            <feOffset dx="0" dy="2" in="SourceAlpha" result="shadowOffsetOuter1"></feOffset>
            <feGaussianBlur stdDeviation="3" in="shadowOffsetOuter1" result="shadowBlurOuter1"></feGaussianBlur>
            <feColorMatrix values="0 0 0 0 0   0 0 0 0 0   0 0 0 0 0  0 0 0 0.2 0" type="matrix" in="shadowBlurOuter1" result="shadowMatrixOuter1"></feColorMatrix>
            <feMerge>
                <feMergeNode in="shadowMatrixOuter1"></feMergeNode>
                <feMergeNode in="SourceGraphic"></feMergeNode>
            </feMerge>
        </filter>
        <filter x="-37.5%" y="-37.5%" width="175.0%" height="175.0%" filterUnits="objectBoundingBox" id="filter-2">
            <feOffset dx="0" dy="2" in="SourceAlpha" result="shadowOffsetOuter1"></feOffset>
            <feGaussianBlur stdDeviation="2" in="shadowOffsetOuter1" result="shadowBlurOuter1"></feGaussianBlur>
            <feColorMatrix values="0 0 0 0 0   0 0 0 0 0   0 0 0 0 0  0 0 0 0.5 0" type="matrix" in="shadowBlurOuter1" result="shadowMatrixOuter1"></feColorMatrix>
            <feMerge>
                <feMergeNode in="shadowMatrixOuter1"></feMergeNode>
                <feMergeNode in="SourceGraphic"></feMergeNode>
            </feMerge>
        </filter>
    </defs>
    <g id="Page-1" stroke="none" stroke-width="1" fill="none" fill-rule="evenodd">
        <g id="Landing-desktop-1440" transform="translate(-1081.000000, -7984.000000)">
            <rect fill="#1C2127" x="0" y="0" width="1440" height="8422"></rect>
            <g id="Footer/1440&gt;-5_Footer/1440&gt;" transform="translate(0.000000, 7615.000000)">
                <polygon id="Rectangle" fill="#1C2127" points="0 100.527118 1440 0 1440 561 0 561"></polygon>
                <g id="icon/Telegram-2_icon/social/Telegram" filter="url(#filter-1)" transform="translate(1089.000000, 373.000000)" fill="#FFFFFF">
                    <g id="Telegram" filter="url(#filter-2)">
                        <path d="M13.3389333,19.2542667 L13.0666667,23.3333333 C13.4666667,23.3333333 13.6434,23.1504 13.8666667,22.9333333 L15.7884738,21.0646162 L19.7866667,24.0185333 C20.5224667,24.42452 21.05352,24.21432 21.2368,23.3354 L23.8614667,10.967 C24.1301867,9.88964 23.4507867,9.401 22.74688,9.72057333 L7.33488,15.6633733 C6.28286667,16.0853333 6.289,16.6722533 7.14312,16.9337733 L11.0981867,18.1682133 L20.2545867,12.3915467 C20.68684,12.1294267 21.08356,12.270348 20.7579467,12.5593333 L13.3390392,19.2543305 Z M16,32 C7.163444,32 0,24.836556 0,16 C0,7.163444 7.163444,0 16,0 C24.836556,0 32,7.163444 32,16 C32,24.836556 24.836556,32 16,32 Z" id="Combined-Shape"></path>
                    </g>
                </g>
            </g>
        </g>
    </g>
</svg>