<?xml version="1.0" encoding="UTF-8"?>
<svg width="48px" height="48px" viewBox="0 0 48 48" version="1.1" xmlns="http://www.w3.org/2000/svg" xmlns:xlink="http://www.w3.org/1999/xlink">
    <!-- Generator: sketchtool 52.5 (67469) - http://www.bohemiancoding.com/sketch -->
    <title>4EB1E6B0-9978-4509-B01E-1DEA296094FB</title>
    <desc>Created with sketchtool.</desc>
    <defs>
        <filter x="-78.1%" y="-78.1%" width="256.2%" height="256.2%" filterUnits="objectBoundingBox" id="filter-1">
            <feOffset dx="0" dy="2" in="SourceAlpha" result="shadowOffsetOuter1"></feOffset>
            <feGaussianBlur stdDeviation="3" in="shadowOffsetOuter1" result="shadowBlurOuter1"></feGaussianBlur>
            <feColorMatrix values="0 0 0 0 0   0 0 0 0 0   0 0 0 0 0  0 0 0 0.2 0" type="matrix" in="shadowBlurOuter1" result="shadowMatrixOuter1"></feColorMatrix>
            <feMerge>
                <feMergeNode in="shadowMatrixOuter1"></feMergeNode>
                <feMergeNode in="SourceGraphic"></feMergeNode>
            </feMerge>
        </filter>
        <filter x="-37.5%" y="-37.5%" width="175.0%" height="175.0%" filterUnits="objectBoundingBox" id="filter-2">
            <feOffset dx="0" dy="2" in="SourceAlpha" result="shadowOffsetOuter1"></feOffset>
            <feGaussianBlur stdDeviation="2" in="shadowOffsetOuter1" result="shadowBlurOuter1"></feGaussianBlur>
            <feColorMatrix values="0 0 0 0 0   0 0 0 0 0   0 0 0 0 0  0 0 0 0.5 0" type="matrix" in="shadowBlurOuter1" result="shadowMatrixOuter1"></feColorMatrix>
            <feMerge>
                <feMergeNode in="shadowMatrixOuter1"></feMergeNode>
                <feMergeNode in="SourceGraphic"></feMergeNode>
            </feMerge>
        </filter>
    </defs>
    <g id="Page-1" stroke="none" stroke-width="1" fill="none" fill-rule="evenodd">
        <g id="Landing-desktop-1440" transform="translate(-1225.000000, -7984.000000)">
            <rect fill="#1C2127" x="0" y="0" width="1440" height="8422"></rect>
            <g id="Footer/1440&gt;-5_Footer/1440&gt;" transform="translate(0.000000, 7615.000000)">
                <polygon id="Rectangle" fill="#1C2127" points="0 100.527118 1440 0 1440 561 0 561"></polygon>
                <g id="icon/Youtube-2_icon/social/Youtube" filter="url(#filter-1)" transform="translate(1233.000000, 373.000000)" fill="#FFFFFF">
                    <g id="Youtube" filter="url(#filter-2)">
                        <path d="M0,16 C0,7.16344357 7.16344357,0 16,0 C24.8365564,0 32,7.16344357 32,16 C32,24.8365564 24.8365564,32 16,32 C7.16344357,32 0,24.8365564 0,16 Z M24.1766788,12.0488129 C23.9804121,11.2948086 23.4020848,10.7010624 22.6677333,10.4995527 C21.3369212,10.1333333 16,10.1333333 16,10.1333333 C16,10.1333333 10.6630788,10.1333333 9.3321697,10.4995527 C8.59781818,10.7010624 8.01949091,11.2948086 7.82322424,12.0488129 C7.46666667,13.4153591 7.46666667,16.2666667 7.46666667,16.2666667 C7.46666667,16.2666667 7.46666667,19.1178753 7.82322424,20.4845204 C8.01949091,21.2385247 8.59781818,21.832271 9.3321697,22.0338796 C10.6630788,22.4 16,22.4 16,22.4 C16,22.4 21.3369212,22.4 22.6677333,22.0338796 C23.4020848,21.832271 23.9804121,21.2385247 24.1766788,20.4845204 C24.5333333,19.1178753 24.5333333,16.2666667 24.5333333,16.2666667 C24.5333333,16.2666667 24.5333333,13.4153591 24.1766788,12.0488129 Z" id="Combined-Shape"></path>
                        <polygon id="Fill-2" points="14.4 19.2 14.4 13.8666667 18.6666667 16.5334352"></polygon>
                    </g>
                </g>
            </g>
        </g>
    </g>
</svg>